<?xml version="1.0" encoding="utf-8"?>
<!-- Generator: Adobe Illustrator 23.0.0, SVG Export Plug-In . SVG Version: 6.00 Build 0)  -->
<svg version="1.1" id="Capa_1" xmlns="http://www.w3.org/2000/svg" xmlns:xlink="http://www.w3.org/1999/xlink" x="0px" y="0px"
	 viewBox="0 0 46.48 53.38" style="enable-background:new 0 0 46.48 53.38;" xml:space="preserve">
<style type="text/css">
	.st0{fill:#020203;}
</style>
<path class="st0" d="M41.9,48.54L39.14,17.8c-0.08-0.84-0.78-1.48-1.62-1.48h-5.69v-2.57c0-4.79-3.89-8.68-8.68-8.68
	c-4.78,0-8.68,3.89-8.68,8.68v2.57h-5.7c-0.84,0-1.55,0.64-1.62,1.48L4.38,48.66c-0.04,0.46,0.11,0.91,0.42,1.24
	c0.31,0.34,0.74,0.53,1.2,0.53h34.29c0,0,0,0,0,0c0.9,0,1.63-0.73,1.63-1.63C41.92,48.72,41.91,48.63,41.9,48.54z M17.72,13.75
	c0-2.99,2.43-5.42,5.42-5.42c2.99,0,5.42,2.43,5.42,5.42v2.57H17.72V13.75z M7.78,47.18l2.48-27.61h4.21v2.91
	c0,0.9,0.73,1.63,1.63,1.63c0.9,0,1.63-0.73,1.63-1.63v-2.91h10.84v2.91c0,0.9,0.73,1.63,1.63,1.63c0.9,0,1.63-0.73,1.63-1.63v-2.91
	h4.2l2.48,27.61L7.78,47.18L7.78,47.18z"/>
</svg>
