<?xml version="1.0" encoding="utf-8"?>
<!-- Generator: Adobe Illustrator 23.0.0, SVG Export Plug-In . SVG Version: 6.00 Build 0)  -->
<svg version="1.1" id="Layer_1" xmlns="http://www.w3.org/2000/svg" xmlns:xlink="http://www.w3.org/1999/xlink" x="0px" y="0px"
	 viewBox="0 0 460 460" style="enable-background:new 0 0 460 460;" xml:space="preserve">
<style type="text/css">
	.st0{fill:#D32854;}
</style>
<g>
	<g>
		<g>
			<g>
				<path class="st0" d="M425.9,0H171.7c-18.1,0-32.9,14.7-32.9,32.9V110c7,0,144.1,0,149.5,0c34.7,0,62.9,28.2,62.9,62.9
					c0,6.5,0,145.5,0,147.1h74.7c18.1,0,32.9-14.7,32.9-32.9V32.9C458.8,14.7,444.1,0,425.9,0z"/>
				<path class="st0" d="M288.3,140H34.1c-18.1,0-32.9,14.7-32.9,32.9v254.3c0,18.1,14.7,32.9,32.9,32.9h254.3
					c18.1,0,32.9-14.7,32.9-32.9V172.9C321.2,154.7,306.5,140,288.3,140z"/>
			</g>
		</g>
	</g>
</g>
</svg>
