<?xml version="1.0" encoding="utf-8"?>
<!-- Generator: Adobe Illustrator 23.0.0, SVG Export Plug-In . SVG Version: 6.00 Build 0)  -->
<svg version="1.1" id="Capa_1" xmlns="http://www.w3.org/2000/svg" xmlns:xlink="http://www.w3.org/1999/xlink" x="0px" y="0px"
	 viewBox="0 0 315 248" style="enable-background:new 0 0 315 248;" xml:space="preserve">
<style type="text/css">
	.st0{fill:#D32854;}
</style>
<path class="st0" d="M68.4,144H295c11,0,20-9,20-20v0c0-11-9-20-20-20H68.4l70.2-69.8c7.8-7.8,7.9-20.5,0.1-28.3
	c-7.8-7.8-20.5-7.9-28.3-0.1L5.9,109.8c0,0,0,0,0,0c-7.8,7.8-7.8,20.5,0,28.3c0,0,0,0,0,0l104.5,104c7.8,7.8,20.5,7.8,28.3-0.1
	c7.8-7.8,7.8-20.5-0.1-28.3L68.4,144z"/>
</svg>
