<?xml version="1.0" encoding="utf-8"?>
<!-- Generator: Adobe Illustrator 23.0.0, SVG Export Plug-In . SVG Version: 6.00 Build 0)  -->
<svg version="1.1" id="Capa_1" xmlns="http://www.w3.org/2000/svg" xmlns:xlink="http://www.w3.org/1999/xlink" x="0px" y="0px"
	 viewBox="0 0 255.63 63.94" style="enable-background:new 0 0 255.63 63.94;" xml:space="preserve">
<style type="text/css">
	.st0{fill:none;stroke:#020203;stroke-width:3;stroke-miterlimit:10;}
	.st1{fill:#020203;}
</style>
<path class="st0" d="M226.86,57.94h-196c-12.65,0-23-10.35-23-23v0c0-12.65,10.35-23,23-23h196c12.65,0,23,10.35,23,23v0
	C249.86,47.59,239.51,57.94,226.86,57.94z"/>
<g>
	<path class="st1" d="M34.96,38.87c0-0.83-0.29-1.47-0.88-1.91s-1.64-0.91-3.16-1.41c-1.52-0.49-2.73-0.98-3.62-1.46
		c-2.42-1.31-3.63-3.07-3.63-5.29c0-1.15,0.32-2.18,0.97-3.08s1.58-1.61,2.8-2.12s2.58-0.76,4.09-0.76c1.52,0,2.88,0.28,4.07,0.83
		s2.12,1.33,2.78,2.34s0.99,2.15,0.99,3.43h-4.39c0-0.98-0.31-1.74-0.92-2.28s-1.48-0.81-2.59-0.81c-1.07,0-1.91,0.23-2.5,0.68
		s-0.89,1.05-0.89,1.79c0,0.69,0.35,1.27,1.05,1.74s1.73,0.91,3.08,1.32c2.5,0.75,4.32,1.68,5.46,2.8s1.71,2.5,1.71,4.16
		c0,1.85-0.7,3.29-2.09,4.34c-1.4,1.05-3.28,1.57-5.64,1.57c-1.64,0-3.13-0.3-4.48-0.9c-1.35-0.6-2.38-1.42-3.08-2.47
		s-1.06-2.26-1.06-3.63h4.41c0,2.35,1.41,3.53,4.22,3.53c1.04,0,1.86-0.21,2.45-0.64C34.67,40.23,34.96,39.64,34.96,38.87z"/>
	<path class="st1" d="M49.36,44.76c-2.32,0-4.22-0.71-5.68-2.14s-2.19-3.33-2.19-5.7v-0.41c0-1.59,0.31-3.02,0.92-4.27
		c0.62-1.25,1.49-2.22,2.61-2.9s2.41-1.02,3.86-1.02c2.17,0,3.87,0.68,5.12,2.05s1.87,3.31,1.87,5.82v1.73H45.79
		c0.14,1.04,0.55,1.87,1.24,2.49s1.56,0.94,2.61,0.94c1.63,0,2.91-0.59,3.82-1.77l2.08,2.33c-0.63,0.9-1.49,1.6-2.58,2.1
		C51.88,44.51,50.68,44.76,49.36,44.76z M48.88,31.74c-0.84,0-1.52,0.28-2.04,0.85s-0.86,1.38-1,2.44h5.89V34.7
		c-0.02-0.94-0.27-1.67-0.76-2.19C50.47,32,49.78,31.74,48.88,31.74z"/>
	<path class="st1" d="M67.47,44.47c-0.2-0.38-0.34-0.85-0.42-1.42c-1.03,1.14-2.36,1.71-4,1.71c-1.55,0-2.84-0.45-3.86-1.35
		s-1.53-2.03-1.53-3.4c0-1.68,0.62-2.97,1.87-3.87s3.04-1.35,5.4-1.36h1.95v-0.91c0-0.73-0.19-1.32-0.56-1.76
		c-0.38-0.44-0.97-0.66-1.78-0.66c-0.71,0-1.27,0.17-1.68,0.51c-0.41,0.34-0.61,0.81-0.61,1.41H58c0-0.92,0.28-1.77,0.85-2.55
		s1.37-1.39,2.4-1.84s2.2-0.67,3.49-0.67c1.95,0,3.5,0.49,4.65,1.47s1.72,2.36,1.72,4.14v6.87c0.01,1.5,0.22,2.64,0.63,3.41v0.25
		H67.47z M63.97,41.52c0.63,0,1.2-0.14,1.73-0.42c0.53-0.28,0.92-0.65,1.17-1.12v-2.72h-1.58c-2.12,0-3.25,0.73-3.38,2.2l-0.01,0.25
		c0,0.53,0.19,0.96,0.56,1.3S63.32,41.52,63.97,41.52z"/>
	<path class="st1" d="M83.27,32.59c-0.58-0.08-1.08-0.12-1.52-0.12c-1.6,0-2.65,0.54-3.15,1.63v10.37h-4.23V28.62h4l0.12,1.89
		c0.85-1.46,2.03-2.18,3.53-2.18c0.47,0,0.91,0.06,1.32,0.19L83.27,32.59z"/>
	<path class="st1" d="M91.62,41.35c0.78,0,1.42-0.21,1.9-0.64s0.74-1,0.76-1.71h3.97c-0.01,1.07-0.3,2.06-0.88,2.95
		c-0.58,0.89-1.36,1.59-2.37,2.08c-1,0.49-2.11,0.74-3.32,0.74c-2.27,0-4.05-0.72-5.36-2.16c-1.31-1.44-1.96-3.43-1.96-5.97v-0.28
		c0-2.44,0.65-4.39,1.95-5.84s3.08-2.18,5.35-2.18c1.98,0,3.57,0.56,4.77,1.69s1.8,2.63,1.82,4.5h-3.97
		c-0.02-0.82-0.27-1.49-0.76-2.01c-0.49-0.52-1.13-0.77-1.93-0.77c-0.99,0-1.73,0.36-2.23,1.08c-0.5,0.72-0.75,1.89-0.75,3.5v0.44
		c0,1.63,0.25,2.81,0.75,3.52C89.85,40.99,90.61,41.35,91.62,41.35z"/>
	<path class="st1" d="M104.81,30.35c1.12-1.35,2.53-2.02,4.23-2.02c3.44,0,5.18,2,5.23,5.99v10.15h-4.23V34.43
		c0-0.91-0.2-1.58-0.59-2.01c-0.39-0.43-1.04-0.65-1.95-0.65c-1.24,0-2.14,0.48-2.7,1.44v11.26h-4.23v-22.5h4.23V30.35z"/>
</g>
<g>
	<path class="st1" d="M232.2,46.53l-7.38-7.38c1.54-2.01,2.45-4.49,2.45-7.2c0-6.63-5.46-12.01-12.2-12.01s-12.2,5.38-12.2,12.01
		c0,6.63,5.46,12.01,12.2,12.01c2.34,0,4.51-0.66,6.37-1.78l7.56,7.56c0.88,0.88,2.32,0.88,3.21,0
		C233.08,48.85,233.08,47.41,232.2,46.53z M206.56,32.04c0-4.66,3.84-8.44,8.58-8.44c4.74,0,8.58,3.78,8.58,8.44
		s-3.84,8.44-8.58,8.44C210.4,40.49,206.56,36.71,206.56,32.04z"/>
</g>
</svg>
