<?xml version="1.0" encoding="utf-8"?>
<!-- Generator: Adobe Illustrator 23.0.0, SVG Export Plug-In . SVG Version: 6.00 Build 0)  -->
<svg version="1.1" id="Capa_1" xmlns="http://www.w3.org/2000/svg" xmlns:xlink="http://www.w3.org/1999/xlink" x="0px" y="0px"
	 viewBox="0 0 512 512" style="enable-background:new 0 0 512 512;" xml:space="preserve">
<style type="text/css">
	.st0{fill:#FFFFFF;stroke:#000000;stroke-width:0.95;stroke-miterlimit:10;}
</style>
<g>
	<path d="M256,483.5c-7.3,0-14.3-2.6-19.8-7.4C215.5,458,195.6,441,178,426l-0.1-0.1C126.3,382,81.8,344,50.8,306.6
		C16.1,264.8,0,225.2,0,181.9C0,139.8,14.4,101,40.6,72.6C67.1,43.8,103.5,28,143,28c29.6,0,56.6,9.3,80.4,27.8
		c12,9.3,22.9,20.7,32.5,34c9.6-13.3,20.5-24.7,32.5-34c24-18.5,51-27.8,80.6-27.8c39.5,0,75.9,15.8,102.4,44.6
		C497.6,101,512,139.8,512,181.9c0,43.3-16.1,82.9-50.8,124.7c-31,37.4-75.5,75.4-127.1,119.3c-17.6,15-37.6,32-58.3,50.2
		C270.3,480.9,263.3,483.5,256,483.5z"/>
</g>
<g id="fill_x5F_heart">
	<path class="st0" d="M149.7,68.9c-29.4,0-56.6,11.8-76.3,33.2c-20,21.8-31.1,51.7-31.1,84.5c0,34.6,12.8,65.6,41.7,100.3
		c27.8,33.6,69.3,69,117.3,109.8l0.1,0.1c16.8,14.3,35.8,30.5,55.6,47.8c20-17.4,39-33.5,55.8-47.9c48-40.9,89.4-76.2,117.3-109.8
		c28.8-34.8,41.7-65.7,41.7-100.3c0-32.8-11-62.8-31.1-84.6c-19.8-21.4-46.9-33.2-76.4-33.2c-21.7,0-41.5,6.8-59,20.4
		c-15.6,12.1-26.5,27.4-32.9,38c-3.3,5.5-9,8.7-15.5,8.7s-12.2-3.3-15.5-8.7c-6.4-10.7-17.3-25.9-32.9-38
		C191.2,75.7,171.3,68.9,149.7,68.9z"/>
</g>
</svg>
