<?xml version="1.0" encoding="utf-8"?>
<!-- Generator: Adobe Illustrator 23.0.0, SVG Export Plug-In . SVG Version: 6.00 Build 0)  -->
<svg version="1.1" xmlns="http://www.w3.org/2000/svg" xmlns:xlink="http://www.w3.org/1999/xlink" x="0px" y="0px"
	 viewBox="0 0 512 512" style="enable-background:new 0 0 512 512;" xml:space="preserve">
<style type="text/css">
	.st0{fill:#FFFFFF;}
</style>
<g id="fill_orders">
	<path class="st0" d="M192,64h32c8.8,0,16-7.2,16-16s7.2-16,16-16s16,7.2,16,16s7.2,16,16,16h32v32H192V64z"/>
	<path class="st0" d="M416,480H96V96h64v16c0,8.8,7.2,16,16,16h160c8.8,0,16-7.2,16-16V96h64V480z"/>
</g>
<g id="Capa_1">
	<g>
		<g>
			<path d="M251.3,196.7c-6.2-6.2-16.4-6.3-22.7,0L176,249.4l-20.7-20.7c-6.2-6.2-16.4-6.2-22.6,0s-6.2,16.4,0,22.6l32,32
				c3.1,3.1,7.2,4.7,11.3,4.7s8.2-1.6,11.3-4.7l64-64C257.6,213.1,257.6,202.9,251.3,196.7z"/>
		</g>
	</g>
	<g>
		<g>
			<path d="M251.3,324.7c-6.2-6.2-16.4-6.3-22.7,0L176,377.4l-20.7-20.7c-6.2-6.2-16.4-6.2-22.6,0s-6.2,16.4,0,22.6l32,32
				c3.1,3.1,7.2,4.7,11.3,4.7s8.2-1.6,11.3-4.7l64-64C257.6,341.1,257.6,330.9,251.3,324.7z"/>
		</g>
	</g>
	<g>
		<g>
			<path d="M368,224h-64c-8.8,0-16,7.2-16,16s7.2,16,16,16h64c8.8,0,16-7.2,16-16S376.8,224,368,224z"/>
		</g>
	</g>
	<g>
		<g>
			<path d="M368,352h-64c-8.8,0-16,7.2-16,16s7.2,16,16,16h64c8.8,0,16-7.2,16-16S376.8,352,368,352z"/>
		</g>
	</g>
	<g>
		<g>
			<path d="M416,64h-64V48c0-8.8-7.2-16-16-16h-34.7C294.7,13.4,276.9,0,256,0s-38.7,13.4-45.3,32H176c-8.8,0-16,7.2-16,16v16H96
				c-17.6,0-32,14.4-32,32v384c0,17.6,14.4,32,32,32h320c17.6,0,32-14.4,32-32V96C448,78.4,433.6,64,416,64z M192,64h32
				c8.8,0,16-7.2,16-16s7.2-16,16-16s16,7.2,16,16s7.2,16,16,16h32v32H192V64z M416,480H96V96h64v16c0,8.8,7.2,16,16,16h160
				c8.8,0,16-7.2,16-16V96h64V480z"/>
		</g>
	</g>
</g>
</svg>
