<?xml version="1.0" encoding="utf-8"?>
<!-- Generator: Adobe Illustrator 23.0.0, SVG Export Plug-In . SVG Version: 6.00 Build 0)  -->
<svg version="1.1" id="Capa_1" xmlns="http://www.w3.org/2000/svg" xmlns:xlink="http://www.w3.org/1999/xlink" x="0px" y="0px"
	 viewBox="0 0 30 30.5" style="enable-background:new 0 0 30 30.5;" xml:space="preserve">
<path d="M29.3,26.6L22,19.2c1.5-2,2.5-4.5,2.5-7.2c0-6.6-5.5-12-12.2-12S0,5.4,0,12s5.5,12,12.2,12c2.3,0,4.5-0.7,6.4-1.8l7.6,7.6
	c0.9,0.9,2.3,0.9,3.2,0C30.2,28.9,30.2,27.5,29.3,26.6z M3.7,12.1c0-4.7,3.8-8.4,8.6-8.4s8.6,3.8,8.6,8.4s-3.8,8.4-8.6,8.4
	S3.7,16.8,3.7,12.1z"/>
</svg>
